<?xml version="1.0" encoding="utf-8"?>
<svg version="1.1" xmlns="http://www.w3.org/2000/svg" xmlns:xlink="http://www.w3.org/1999/xlink" x="0px" y="0px"
	 viewBox="0 0 146.9 92.1" enable-background="new 0 0 146.9 92.1" xml:space="preserve">
<g id="Bgd_logo">
	<rect x="5.5" y="0" fill="none" width="141.4" height="92.1"/>
</g>
<g id="Logo">
	<path d="M44.1,45.2h-5.9l-3.5-15.5h-0.1l-3.5,15.5h-6l-5.7-22.6h5.9l3.2,16.5h0.1L32,22.7h5.5l3.3,16.5h0.1l3.2-16.5H50L44.1,45.2z
		"/>
	<path d="M59.7,22.2c7.1,0,11.1,5.2,11.1,11.8c0,6.5-4,11.8-11.1,11.8c-7.1,0-11.1-5.2-11.1-11.8C48.6,27.4,52.6,22.2,59.7,22.2z
		 M59.7,40.6c3.8,0,5.2-3.3,5.2-6.7c0-3.3-1.5-6.7-5.2-6.7c-3.8,0-5.2,3.3-5.2,6.7C54.5,37.3,55.9,40.6,59.7,40.6z"/>
	<path d="M82.4,22.2c7.1,0,11.1,5.2,11.1,11.8c0,6.5-4,11.8-11.1,11.8c-7.1,0-11.1-5.2-11.1-11.8C71.3,27.4,75.3,22.2,82.4,22.2z
		 M82.4,40.6c3.8,0,5.2-3.3,5.2-6.7c0-3.3-1.5-6.7-5.2-6.7c-3.8,0-5.2,3.3-5.2,6.7C77.1,37.3,78.6,40.6,82.4,40.6z"/>
	<path d="M94.2,22.7h9.7c6.9,0,11.1,4.2,11.1,11.2c0,7.4-4.2,11.4-11.1,11.4h-9.7V22.7z M100,40.2h2.8c4.4-0.1,6.2-1.8,6.2-6.3
		c0-4.1-2.2-6.1-6.2-6.1H100V40.2z"/>
	<path d="M120.8,37.7c0.1,2.7,1.8,3.5,4.3,3.5c1.8,0,3.6-0.6,3.6-2.3c0-2-3.2-2.4-6.5-3.3c-3.2-0.9-6.6-2.4-6.6-6.5
		c0-4.9,5-6.9,9.2-6.9c4.5,0,9,2.2,9,7.3H128c0.1-2.1-1.8-2.7-3.6-2.7c-1.3,0-2.8,0.4-2.8,1.9c0,1.7,3.3,2.1,6.5,3
		c3.3,0.9,6.5,2.4,6.5,6.5c0,5.7-4.9,7.6-9.8,7.6c-5.2,0-9.8-2.3-9.8-8.1H120.8z"/>
	<path d="M25.3,46.9h10.6c3.9-0.1,8.2,0.9,8.2,5.7c0,2-1.2,3.7-3,4.6c2.4,0.7,3.9,2.8,3.9,5.3c0,5.4-4,7-8.8,7H25.3V46.9z
		 M31.2,55.8h4.5c1,0,2.4-0.5,2.4-2.1c0-1.6-1.2-2.2-2.4-2.2h-4.5V55.8z M31.2,64.7h4.7c1.9,0,3.2-0.7,3.2-2.5c0-2-1.4-2.7-3.2-2.7
		h-4.7V64.7z"/>
	<path d="M52.1,46.9h6l8.4,22.6h-6.1l-1.4-4h-7.9l-1.4,4h-6L52.1,46.9z M52.4,61h5.1l-2.5-7.9H55L52.4,61z"/>
	<path d="M85.8,69.4H82L81.7,67c-1.5,2.2-4.2,2.9-6.3,2.9c-6.8,0-11.2-5.2-11.2-11.8c0-6.5,4.4-11.8,11.2-11.8
		c4.7,0,9.7,2.5,10.2,8.1h-5.9c-0.2-1.9-2.1-3.1-4.5-3.1c-3.8,0-5.2,3.3-5.2,6.7c0,3.3,1.5,6.7,5.2,6.7c2.9,0,4.9-1.4,5.2-3.4h-4.1
		v-4.4h9.5V69.4z"/>
	<path d="M97.3,46.4c7.1,0,11.1,5.2,11.1,11.8c0,6.5-4,11.8-11.1,11.8c-7.1,0-11.1-5.2-11.1-11.8C86.2,51.6,90.2,46.4,97.3,46.4z
		 M97.3,64.9c3.8,0,5.2-3.3,5.2-6.7c0-3.3-1.5-6.7-5.2-6.7c-3.8,0-5.2,3.3-5.2,6.7C92.1,61.5,93.5,64.9,97.3,64.9z"/>
	<path d="M126.8,51.9h-6.7v17.5h-5.9V51.9h-6.7v-5.1h19.3V51.9z"/>
	<g>
		<path d="M123,67.1h-0.9v-0.3h2.2v0.3h-0.9v2.4H123V67.1z"/>
		<path d="M124.4,66.8h0.5l0.9,2.3l0.9-2.3h0.5v2.7h-0.3v-2.2h0l-0.8,2.2h-0.3l-0.8-2.2h0v2.2h-0.3V66.8z"/>
	</g>
</g>
</svg>
